<svg width="512" height="512" viewBox="0 0 512 512" fill="none" xmlns="http://www.w3.org/2000/svg">
  <rect width="512" height="512" rx="128" fill="#007bff"/>
  <path d="M156 200C156 169.065 168.291 140.186 189.455 118.545C210.619 96.9043 238.935 84 268 84C297.065 84 325.944 96.2915 347.585 117.455C369.226 138.619 382 166.935 382 196C382 225.065 369.709 253.944 348.545 275.585C327.381 297.226 299.065 310 268 310H156V200Z" fill="white"/>
  <path d="M268 310C238.935 310 210.619 322.291 189.455 343.455C168.291 364.619 156 392.935 156 422C156 451.065 168.291 479.944 189.455 501.585C210.619 523.226 238.935 536 268 536C297.065 536 325.944 523.709 347.585 502.545C369.226 481.381 382 453.065 382 422C382 392.935 369.709 364.056 348.545 342.415C327.381 320.774 299.065 308 268 308V310Z" fill="white"/>
  <path d="M156 200V310H268C297.065 310 325.944 322.291 347.585 343.455C369.226 364.619 382 392.935 382 422C382 451.065 369.709 479.944 348.545 501.585C327.381 523.226 299.065 536 268 536C238.935 536 210.619 523.709 189.455 502.545C168.291 481.381 156 453.065 156 422V200Z" fill="white" fill-opacity="0.2"/>
</svg>