<svg xmlns="http://www.w3.org/2000/svg" viewBox="0 0 64 64">
  <defs>
    <linearGradient id="bg" x1="0" y1="0" x2="1" y2="1">
      <stop offset="0%" stop-color="#155cdb" />
      <stop offset="100%" stop-color="#2376ff" />
    </linearGradient>
  </defs>
  <rect width="64" height="64" rx="16" fill="url(#bg)" />
  <path d="M17 28.5c0-1.4 1.1-2.5 2.5-2.5h25c1.4 0 2.5 1.1 2.5 2.5v18c0 1.4-1.1 2.5-2.5 2.5h-25c-1.4 0-2.5-1.1-2.5-2.5v-18z" fill="#fff"/>
  <path d="M24 26v-3.5A8 8 0 0 1 32 14a8 8 0 0 1 8 8.5V26h-3v-3.4a5 5 0 0 0-5-5.2 5 5 0 0 0-5 5.2V26h-3z" fill="#fff"/>
</svg>
